<mxfile host="app.diagrams.net" modified="2020-10-24T10:05:33.875Z" agent="5.0 (Windows NT 10.0; Win64; x64) AppleWebKit/537.36 (KHTML, like Gecko) Chrome/83.0.4103.116 Safari/537.36" etag="kFswG2jzEYNWwPnA5Exh" version="13.7.9" type="github">
  <diagram id="Ui4I-p-PomPHRxhMgURq" name="Page-1">
    <mxGraphModel dx="1422" dy="737" grid="1" gridSize="10" guides="1" tooltips="1" connect="1" arrows="1" fold="1" page="1" pageScale="1" pageWidth="827" pageHeight="1169" math="0" shadow="0">
      <root>
        <mxCell id="0" />
        <mxCell id="1" parent="0" />
        <mxCell id="b9qbWGyHtpTypDYCe_0p-3" style="edgeStyle=orthogonalEdgeStyle;rounded=0;orthogonalLoop=1;jettySize=auto;html=1;entryX=0.5;entryY=0;entryDx=0;entryDy=0;" edge="1" parent="1" source="b9qbWGyHtpTypDYCe_0p-1" target="b9qbWGyHtpTypDYCe_0p-2">
          <mxGeometry relative="1" as="geometry" />
        </mxCell>
        <mxCell id="b9qbWGyHtpTypDYCe_0p-1" value="Start" style="html=1;dashed=0;whitespace=wrap;shape=mxgraph.dfd.start" vertex="1" parent="1">
          <mxGeometry x="358" y="120" width="80" height="30" as="geometry" />
        </mxCell>
        <mxCell id="b9qbWGyHtpTypDYCe_0p-5" style="edgeStyle=orthogonalEdgeStyle;rounded=0;orthogonalLoop=1;jettySize=auto;html=1;entryX=0.5;entryY=0;entryDx=0;entryDy=0;" edge="1" parent="1" source="b9qbWGyHtpTypDYCe_0p-2" target="b9qbWGyHtpTypDYCe_0p-4">
          <mxGeometry relative="1" as="geometry" />
        </mxCell>
        <mxCell id="b9qbWGyHtpTypDYCe_0p-2" value="Menunggu input suara dan userid" style="rounded=0;whiteSpace=wrap;html=1;" vertex="1" parent="1">
          <mxGeometry x="338" y="200" width="120" height="60" as="geometry" />
        </mxCell>
        <mxCell id="b9qbWGyHtpTypDYCe_0p-9" style="edgeStyle=orthogonalEdgeStyle;rounded=0;orthogonalLoop=1;jettySize=auto;html=1;entryX=1;entryY=0.5;entryDx=0;entryDy=0;" edge="1" parent="1" target="b9qbWGyHtpTypDYCe_0p-8">
          <mxGeometry relative="1" as="geometry">
            <mxPoint x="398" y="520" as="sourcePoint" />
          </mxGeometry>
        </mxCell>
        <mxCell id="b9qbWGyHtpTypDYCe_0p-26" style="edgeStyle=orthogonalEdgeStyle;rounded=0;orthogonalLoop=1;jettySize=auto;html=1;entryX=0.5;entryY=0;entryDx=0;entryDy=0;" edge="1" parent="1" source="b9qbWGyHtpTypDYCe_0p-4" target="b9qbWGyHtpTypDYCe_0p-25">
          <mxGeometry relative="1" as="geometry" />
        </mxCell>
        <mxCell id="b9qbWGyHtpTypDYCe_0p-4" value="Input data suara&lt;br&gt;dan userid" style="shape=parallelogram;perimeter=parallelogramPerimeter;whiteSpace=wrap;html=1;fixedSize=1;" vertex="1" parent="1">
          <mxGeometry x="338" y="300" width="120" height="60" as="geometry" />
        </mxCell>
        <mxCell id="b9qbWGyHtpTypDYCe_0p-11" style="edgeStyle=orthogonalEdgeStyle;rounded=0;orthogonalLoop=1;jettySize=auto;html=1;entryX=0.5;entryY=0;entryDx=0;entryDy=0;" edge="1" parent="1" source="b9qbWGyHtpTypDYCe_0p-6" target="b9qbWGyHtpTypDYCe_0p-12">
          <mxGeometry relative="1" as="geometry">
            <mxPoint x="398" y="660" as="targetPoint" />
            <Array as="points" />
          </mxGeometry>
        </mxCell>
        <mxCell id="b9qbWGyHtpTypDYCe_0p-6" value="Ekstraksi MFCC" style="rounded=0;whiteSpace=wrap;html=1;" vertex="1" parent="1">
          <mxGeometry x="338" y="560" width="120" height="60" as="geometry" />
        </mxCell>
        <mxCell id="b9qbWGyHtpTypDYCe_0p-30" style="edgeStyle=orthogonalEdgeStyle;rounded=0;orthogonalLoop=1;jettySize=auto;html=1;entryX=0;entryY=0.5;entryDx=0;entryDy=0;" edge="1" parent="1" source="b9qbWGyHtpTypDYCe_0p-8" target="b9qbWGyHtpTypDYCe_0p-14">
          <mxGeometry relative="1" as="geometry">
            <Array as="points">
              <mxPoint x="234" y="790" />
            </Array>
          </mxGeometry>
        </mxCell>
        <mxCell id="b9qbWGyHtpTypDYCe_0p-8" value="Data suara &lt;br&gt;pemilik akun" style="shape=dataStorage;whiteSpace=wrap;html=1;fixedSize=1;" vertex="1" parent="1">
          <mxGeometry x="174" y="490" width="120" height="60" as="geometry" />
        </mxCell>
        <mxCell id="b9qbWGyHtpTypDYCe_0p-10" value="Renew" style="text;html=1;align=center;verticalAlign=middle;resizable=0;points=[];autosize=1;" vertex="1" parent="1">
          <mxGeometry x="324" y="500" width="50" height="20" as="geometry" />
        </mxCell>
        <mxCell id="b9qbWGyHtpTypDYCe_0p-13" style="edgeStyle=orthogonalEdgeStyle;rounded=0;orthogonalLoop=1;jettySize=auto;html=1;entryX=0.5;entryY=0;entryDx=0;entryDy=0;" edge="1" parent="1" source="b9qbWGyHtpTypDYCe_0p-12" target="b9qbWGyHtpTypDYCe_0p-14">
          <mxGeometry relative="1" as="geometry">
            <mxPoint x="398" y="750" as="targetPoint" />
          </mxGeometry>
        </mxCell>
        <mxCell id="b9qbWGyHtpTypDYCe_0p-12" value="Vektor MFCC" style="shape=parallelogram;perimeter=parallelogramPerimeter;whiteSpace=wrap;html=1;fixedSize=1;" vertex="1" parent="1">
          <mxGeometry x="338" y="660" width="120" height="60" as="geometry" />
        </mxCell>
        <mxCell id="b9qbWGyHtpTypDYCe_0p-41" style="edgeStyle=orthogonalEdgeStyle;rounded=0;orthogonalLoop=1;jettySize=auto;html=1;entryX=0;entryY=0.5;entryDx=0;entryDy=0;" edge="1" parent="1" source="b9qbWGyHtpTypDYCe_0p-14" target="b9qbWGyHtpTypDYCe_0p-39">
          <mxGeometry relative="1" as="geometry" />
        </mxCell>
        <mxCell id="b9qbWGyHtpTypDYCe_0p-14" value="Training GMM" style="rounded=0;whiteSpace=wrap;html=1;" vertex="1" parent="1">
          <mxGeometry x="338" y="760" width="120" height="60" as="geometry" />
        </mxCell>
        <mxCell id="b9qbWGyHtpTypDYCe_0p-27" style="edgeStyle=orthogonalEdgeStyle;rounded=0;orthogonalLoop=1;jettySize=auto;html=1;entryX=0.5;entryY=0;entryDx=0;entryDy=0;" edge="1" parent="1" source="b9qbWGyHtpTypDYCe_0p-25" target="b9qbWGyHtpTypDYCe_0p-6">
          <mxGeometry relative="1" as="geometry" />
        </mxCell>
        <mxCell id="b9qbWGyHtpTypDYCe_0p-28" style="edgeStyle=orthogonalEdgeStyle;rounded=0;orthogonalLoop=1;jettySize=auto;html=1;entryX=0.5;entryY=0;entryDx=0;entryDy=0;" edge="1" parent="1" source="b9qbWGyHtpTypDYCe_0p-25" target="b9qbWGyHtpTypDYCe_0p-29">
          <mxGeometry relative="1" as="geometry">
            <mxPoint x="564" y="430" as="targetPoint" />
          </mxGeometry>
        </mxCell>
        <mxCell id="b9qbWGyHtpTypDYCe_0p-25" value="userid exist?" style="rhombus;whiteSpace=wrap;html=1;" vertex="1" parent="1">
          <mxGeometry x="358" y="390" width="80" height="80" as="geometry" />
        </mxCell>
        <mxCell id="b9qbWGyHtpTypDYCe_0p-31" style="edgeStyle=orthogonalEdgeStyle;rounded=0;orthogonalLoop=1;jettySize=auto;html=1;entryX=0.5;entryY=0;entryDx=0;entryDy=0;" edge="1" parent="1" source="b9qbWGyHtpTypDYCe_0p-29" target="b9qbWGyHtpTypDYCe_0p-32">
          <mxGeometry relative="1" as="geometry">
            <mxPoint x="594" y="550" as="targetPoint" />
          </mxGeometry>
        </mxCell>
        <mxCell id="b9qbWGyHtpTypDYCe_0p-29" value="Ekstraksi MFCC" style="rounded=0;whiteSpace=wrap;html=1;" vertex="1" parent="1">
          <mxGeometry x="534" y="460" width="120" height="60" as="geometry" />
        </mxCell>
        <mxCell id="b9qbWGyHtpTypDYCe_0p-34" style="edgeStyle=orthogonalEdgeStyle;rounded=0;orthogonalLoop=1;jettySize=auto;html=1;entryX=0.5;entryY=0;entryDx=0;entryDy=0;" edge="1" parent="1" source="b9qbWGyHtpTypDYCe_0p-32" target="b9qbWGyHtpTypDYCe_0p-33">
          <mxGeometry relative="1" as="geometry" />
        </mxCell>
        <mxCell id="b9qbWGyHtpTypDYCe_0p-32" value="Vektor MFCC" style="shape=parallelogram;perimeter=parallelogramPerimeter;whiteSpace=wrap;html=1;fixedSize=1;" vertex="1" parent="1">
          <mxGeometry x="534" y="560" width="120" height="60" as="geometry" />
        </mxCell>
        <mxCell id="b9qbWGyHtpTypDYCe_0p-37" style="edgeStyle=orthogonalEdgeStyle;rounded=0;orthogonalLoop=1;jettySize=auto;html=1;entryX=0.5;entryY=0;entryDx=0;entryDy=0;" edge="1" parent="1" source="b9qbWGyHtpTypDYCe_0p-33" target="b9qbWGyHtpTypDYCe_0p-38">
          <mxGeometry relative="1" as="geometry">
            <mxPoint x="594" y="760" as="targetPoint" />
          </mxGeometry>
        </mxCell>
        <mxCell id="b9qbWGyHtpTypDYCe_0p-33" value="Verifikasi menggunakan pre-trained GMM" style="rounded=0;whiteSpace=wrap;html=1;" vertex="1" parent="1">
          <mxGeometry x="534" y="660" width="120" height="60" as="geometry" />
        </mxCell>
        <mxCell id="b9qbWGyHtpTypDYCe_0p-40" style="edgeStyle=orthogonalEdgeStyle;rounded=0;orthogonalLoop=1;jettySize=auto;html=1;entryX=1;entryY=0.5;entryDx=0;entryDy=0;" edge="1" parent="1" source="b9qbWGyHtpTypDYCe_0p-38" target="b9qbWGyHtpTypDYCe_0p-39">
          <mxGeometry relative="1" as="geometry" />
        </mxCell>
        <mxCell id="b9qbWGyHtpTypDYCe_0p-38" value="Menghitung prediksi" style="rounded=0;whiteSpace=wrap;html=1;" vertex="1" parent="1">
          <mxGeometry x="534" y="760" width="120" height="60" as="geometry" />
        </mxCell>
        <mxCell id="b9qbWGyHtpTypDYCe_0p-44" style="edgeStyle=orthogonalEdgeStyle;rounded=0;orthogonalLoop=1;jettySize=auto;html=1;entryX=0.5;entryY=0;entryDx=0;entryDy=0;" edge="1" parent="1" source="b9qbWGyHtpTypDYCe_0p-39" target="b9qbWGyHtpTypDYCe_0p-43">
          <mxGeometry relative="1" as="geometry" />
        </mxCell>
        <mxCell id="b9qbWGyHtpTypDYCe_0p-39" value="Send Result" style="rounded=0;whiteSpace=wrap;html=1;" vertex="1" parent="1">
          <mxGeometry x="438" y="850" width="120" height="60" as="geometry" />
        </mxCell>
        <mxCell id="b9qbWGyHtpTypDYCe_0p-46" style="edgeStyle=orthogonalEdgeStyle;rounded=0;orthogonalLoop=1;jettySize=auto;html=1;entryX=0.5;entryY=0.5;entryDx=0;entryDy=-15;entryPerimeter=0;" edge="1" parent="1" source="b9qbWGyHtpTypDYCe_0p-43" target="b9qbWGyHtpTypDYCe_0p-45">
          <mxGeometry relative="1" as="geometry" />
        </mxCell>
        <mxCell id="b9qbWGyHtpTypDYCe_0p-47" style="edgeStyle=orthogonalEdgeStyle;rounded=0;orthogonalLoop=1;jettySize=auto;html=1;entryX=1;entryY=0.5;entryDx=0;entryDy=0;" edge="1" parent="1" source="b9qbWGyHtpTypDYCe_0p-43" target="b9qbWGyHtpTypDYCe_0p-2">
          <mxGeometry relative="1" as="geometry">
            <Array as="points">
              <mxPoint x="740" y="980" />
              <mxPoint x="740" y="230" />
            </Array>
          </mxGeometry>
        </mxCell>
        <mxCell id="b9qbWGyHtpTypDYCe_0p-43" value="Shutdown?" style="rhombus;whiteSpace=wrap;html=1;" vertex="1" parent="1">
          <mxGeometry x="458" y="940" width="80" height="80" as="geometry" />
        </mxCell>
        <mxCell id="b9qbWGyHtpTypDYCe_0p-45" value="End" style="html=1;dashed=0;whitespace=wrap;shape=mxgraph.dfd.start" vertex="1" parent="1">
          <mxGeometry x="458" y="1050" width="80" height="30" as="geometry" />
        </mxCell>
      </root>
    </mxGraphModel>
  </diagram>
</mxfile>
